<svg width="123" height="151" viewBox="0 0 123 151" fill="none" xmlns="http://www.w3.org/2000/svg">
<path d="M79.727 103.828C103.278 93.588 114.069 66.1945 103.828 42.6433C93.588 19.0921 66.1945 8.30146 42.6433 18.5418C19.0921 28.7822 8.30146 56.1757 18.5418 79.727C28.7822 103.278 56.1757 114.069 79.727 103.828Z" fill="url(#paint0_linear_28_69)"/>
<path d="M41.9857 55.9029L56.3407 88.917C56.7811 89.93 57.9593 90.3941 58.9723 89.9536C59.9853 89.5132 60.4494 88.335 60.0089 87.322L45.654 54.3079C45.2135 53.2949 44.0353 52.8308 43.0223 53.2712C42.0094 53.7117 41.5453 54.8899 41.9857 55.9029Z" fill="#1E1E1E"/>
<path d="M69.1188 30.5296L87.6407 73.127C88.0811 74.14 89.2593 74.6041 90.2723 74.1636C91.2852 73.7232 91.7494 72.545 91.3089 71.532L72.787 28.9346C72.3466 27.9216 71.1684 27.4575 70.1554 27.898C69.1425 28.3384 68.6783 29.5166 69.1188 30.5296Z" fill="#1E1E1E"/>
<path d="M35.5662 58.6941L43.8202 55.1051L51.7952 73.4462L43.5412 77.0351C40.5022 78.3561 36.9682 76.9642 35.6462 73.9252L32.4562 66.5892C31.1352 63.5502 32.5272 60.0151 35.5662 58.6941Z" stroke="#1E1E1E" stroke-width="4"/>
<path d="M73.1992 30.5101C65.4822 40.3781 56.5082 49.0221 46.5092 56.2201L44.2012 52.7471C53.9292 45.7441 62.6592 37.3341 70.1682 27.7331L73.1992 30.5101Z" fill="#1E1E1E"/>
<path d="M89.0262 70.0431C75.3622 67.5111 62.4412 67.9501 50.6192 71.3471L52.3222 75.6871C63.9282 72.3521 76.6132 71.9211 90.0262 74.4071L89.0262 70.0431Z" fill="#1E1E1E"/>
<path d="M27.3982 148.609C27.5002 148.863 27.5502 149.129 27.5502 149.409C27.5502 149.662 27.4232 149.929 27.1692 150.208C26.9412 150.488 26.5472 150.627 25.9892 150.627C25.4562 150.627 25.0622 150.335 24.8082 149.751L22.7902 144.914L12.1642 144.914L10.1832 149.751C9.92915 150.335 9.52316 150.627 8.96416 150.627C8.43116 150.627 8.03815 150.488 7.78415 150.208C7.55515 149.929 7.44116 149.662 7.44116 149.409C7.44116 149.129 7.49215 148.863 7.59315 148.609L15.5152 129.832C15.8712 128.969 16.4802 128.537 17.3432 128.537L17.6482 128.537C18.4862 128.537 19.0952 128.969 19.4762 129.832L27.3982 148.609ZM21.7232 142.325L17.4962 132.156L13.2682 142.325L21.7232 142.325ZM32.5761 128.956C32.5761 128.55 32.7161 128.22 32.9951 127.966C33.2741 127.687 33.6172 127.547 34.0232 127.547C34.4302 127.547 34.7602 127.687 35.0142 127.966C35.2932 128.22 35.4332 128.55 35.4332 128.956L35.4332 149.218C35.4332 149.599 35.2932 149.929 35.0142 150.208C34.7602 150.488 34.4302 150.627 34.0232 150.627C33.6172 150.627 33.2741 150.488 32.9951 150.208C32.7161 149.929 32.5761 149.599 32.5761 149.218L32.5761 128.956ZM44.0381 143.543C44.2161 144.94 44.7492 146.057 45.6382 146.895C46.5522 147.707 47.7962 148.114 49.3712 148.114C50.9702 148.114 52.3292 147.86 53.4462 147.352C53.8012 147.174 54.1192 147.085 54.3982 147.085C54.6772 147.06 54.9312 147.162 55.1602 147.39C55.4132 147.619 55.5402 147.872 55.5402 148.152C55.5402 148.71 55.3122 149.104 54.8552 149.332C54.4232 149.561 54.0302 149.764 53.6742 149.942C53.3192 150.12 52.9382 150.272 52.5322 150.399C51.5922 150.653 50.5002 150.78 49.2562 150.78C46.6922 150.78 44.6992 150.069 43.2772 148.647C41.8802 147.2 41.1822 145.156 41.1822 142.515C41.1822 140.23 41.7792 138.326 42.9722 136.802C44.3182 135.101 46.2092 134.25 48.6472 134.25C50.9832 134.25 52.8242 135.037 54.1692 136.612C55.4392 138.084 56.0742 139.925 56.0742 142.134C56.0742 142.515 55.9342 142.845 55.6552 143.124C55.4012 143.404 55.0712 143.543 54.6642 143.543L44.0381 143.543ZM48.6472 136.65C46.7932 136.65 45.4482 137.475 44.6102 139.125C44.3052 139.709 44.1151 140.408 44.0381 141.22L53.2552 141.22C53.1792 139.747 52.6332 138.579 51.6182 137.716C50.8052 137.005 49.8152 136.65 48.6472 136.65ZM64.2612 137.183C65.7332 135.228 67.3712 134.25 69.1742 134.25L69.3261 134.25C69.7071 134.25 70.0242 134.39 70.2782 134.669C70.5572 134.923 70.6971 135.253 70.6971 135.66C70.6971 136.066 70.5572 136.396 70.2782 136.65C69.9992 136.878 69.6562 136.993 69.2502 136.993L69.0981 136.993C68.0561 136.993 67.1302 137.246 66.3172 137.754C65.5052 138.262 64.8192 138.922 64.2612 139.735L64.2612 149.218C64.2612 149.599 64.1212 149.929 63.8422 150.208C63.5622 150.488 63.2322 150.627 62.8512 150.627C62.4712 150.627 62.1401 150.488 61.8611 150.208C61.5821 149.929 61.4422 149.599 61.4422 149.218L61.4422 135.85C61.4422 135.469 61.5692 135.139 61.8232 134.86C62.1022 134.555 62.4452 134.403 62.8512 134.403C63.2322 134.403 63.5622 134.542 63.8422 134.822C64.1212 135.101 64.2612 135.444 64.2612 135.85L64.2612 137.183ZM80.8261 148.266C81.3851 148.266 81.7791 148.228 82.0071 148.152C82.2611 148.05 82.5282 147.999 82.8072 147.999C83.0862 147.999 83.3402 148.114 83.5692 148.342C83.7972 148.545 83.9112 148.863 83.9112 149.294C83.9112 149.701 83.7082 149.993 83.3022 150.17C82.4132 150.577 81.6522 150.78 81.0172 150.78C80.3822 150.78 79.7982 150.742 79.2652 150.665C78.7572 150.615 78.2622 150.45 77.7802 150.17C76.6372 149.51 76.0662 148.342 76.0662 146.666L76.0662 136.993L73.8571 136.993C73.4761 136.993 73.2732 136.789 73.2472 136.383C73.2472 136.205 73.3492 136.04 73.5522 135.888L77.7802 131.737C77.9572 131.559 78.1352 131.47 78.3132 131.47C78.4912 131.445 78.6301 131.495 78.7321 131.622C78.8331 131.749 78.8842 131.902 78.8842 132.079L78.8842 134.555L82.4261 134.555C82.7821 134.555 83.0742 134.669 83.3022 134.898C83.5312 135.126 83.6451 135.418 83.6451 135.774C83.6451 136.129 83.5312 136.421 83.3022 136.65C83.0742 136.878 82.7821 136.993 82.4261 136.993L78.8842 136.993L78.8842 146.438C78.8842 147.225 79.1252 147.758 79.6082 148.037C79.8622 148.19 80.2681 148.266 80.8261 148.266ZM91.3752 137.183C92.8472 135.228 94.4851 134.25 96.2881 134.25L96.4402 134.25C96.8212 134.25 97.1382 134.39 97.3922 134.669C97.6722 134.923 97.8112 135.253 97.8112 135.66C97.8112 136.066 97.6722 136.396 97.3922 136.65C97.1132 136.878 96.7702 136.993 96.3642 136.993L96.2122 136.993C95.1712 136.993 94.2442 137.246 93.4312 137.754C92.6192 138.262 91.9332 138.922 91.3752 139.735L91.3752 149.218C91.3752 149.599 91.2351 149.929 90.9561 150.208C90.6761 150.488 90.3462 150.627 89.9662 150.627C89.5852 150.627 89.2552 150.488 88.9752 150.208C88.6962 149.929 88.5562 149.599 88.5562 149.218L88.5562 135.85C88.5562 135.469 88.6832 135.139 88.9372 134.86C89.2172 134.555 89.5592 134.403 89.9662 134.403C90.3462 134.403 90.6761 134.542 90.9561 134.822C91.2351 135.101 91.3752 135.444 91.3752 135.85L91.3752 137.183ZM102.723 135.355C104.475 134.593 106.29 134.225 108.169 134.25C110.277 134.25 111.914 134.898 113.082 136.193C114.123 137.31 114.656 138.706 114.682 140.382L114.682 149.218C114.682 149.599 114.529 149.929 114.225 150.208C113.945 150.488 113.603 150.627 113.196 150.627C112.816 150.627 112.486 150.488 112.206 150.208C111.927 149.929 111.787 149.599 111.787 149.218L111.787 148.418C111.229 149.002 110.48 149.548 109.54 150.056C108.601 150.538 107.407 150.78 105.96 150.78C104.513 150.78 103.307 150.361 102.342 149.523C101.352 148.66 100.857 147.53 100.857 146.133C100.857 144.584 101.441 143.366 102.609 142.477C103.878 141.512 105.681 141.042 108.017 141.068L111.787 141.068L111.787 140.801C111.787 139.405 111.444 138.414 110.759 137.83C110.099 137.246 109.058 136.954 107.636 136.954C106.443 136.954 105.059 137.196 103.485 137.678C103.332 137.729 103.142 137.754 102.913 137.754C102.71 137.754 102.494 137.653 102.266 137.45C102.037 137.221 101.91 136.878 101.885 136.421C101.885 135.939 102.164 135.583 102.723 135.355ZM103.713 145.79C103.713 147.466 104.818 148.291 107.027 148.266C107.991 148.266 108.893 148.037 109.731 147.58C110.594 147.098 111.279 146.565 111.787 145.981L111.787 143.353L108.436 143.353C106.963 143.353 105.808 143.543 104.97 143.924C104.132 144.28 103.713 144.902 103.713 145.79Z" fill="white"/>
<defs>
<linearGradient id="paint0_linear_28_69" x1="29.5854" y1="32.3979" x2="95.7759" y2="96.8512" gradientUnits="userSpaceOnUse">
<stop stop-color="#03EAFD"/>
<stop offset="1" stop-color="#4AB1FC"/>
</linearGradient>
</defs>
</svg>
